<svg width="133" height="38" viewBox="0 0 133 38" fill="none" xmlns="http://www.w3.org/2000/svg">
<path d="M11.1641 25V13.5469H19.6562V15.4844H13.4766V18.0234H19.2266V19.9531H13.4766V23.0703H19.875V25H11.1641ZM29.4297 25H27.3906V23.7812C27.0521 24.2552 26.651 24.6094 26.1875 24.8438C25.7292 25.0729 25.2656 25.1875 24.7969 25.1875C23.8438 25.1875 23.026 24.8047 22.3438 24.0391C21.6667 23.2682 21.3281 22.1953 21.3281 20.8203C21.3281 19.4141 21.6589 18.3464 22.3203 17.6172C22.9818 16.8828 23.8177 16.5156 24.8281 16.5156C25.7552 16.5156 26.5573 16.901 27.2344 17.6719V13.5469H29.4297V25ZM23.5703 20.6719C23.5703 21.5573 23.6927 22.1979 23.9375 22.5938C24.2917 23.1667 24.7865 23.4531 25.4219 23.4531C25.9271 23.4531 26.3568 23.2396 26.7109 22.8125C27.0651 22.3802 27.2422 21.737 27.2422 20.8828C27.2422 19.9297 27.0703 19.2448 26.7266 18.8281C26.3828 18.4062 25.9427 18.1953 25.4062 18.1953C24.8854 18.1953 24.4479 18.4036 24.0938 18.8203C23.7448 19.2318 23.5703 19.849 23.5703 20.6719ZM31.3984 25.5469L33.9062 25.8516C33.9479 26.1432 34.0443 26.3438 34.1953 26.4531C34.4036 26.6094 34.7318 26.6875 35.1797 26.6875C35.7526 26.6875 36.1823 26.6016 36.4688 26.4297C36.6615 26.3151 36.8073 26.1302 36.9062 25.875C36.974 25.6927 37.0078 25.3568 37.0078 24.8672V23.6562C36.3516 24.5521 35.5234 25 34.5234 25C33.4089 25 32.526 24.5286 31.875 23.5859C31.3646 22.8411 31.1094 21.9141 31.1094 20.8047C31.1094 19.4141 31.4427 18.3516 32.1094 17.6172C32.7812 16.8828 33.6146 16.5156 34.6094 16.5156C35.6354 16.5156 36.4818 16.9661 37.1484 17.8672V16.7031H39.2031V24.1484C39.2031 25.1276 39.1224 25.8594 38.9609 26.3438C38.7995 26.8281 38.5729 27.2083 38.2812 27.4844C37.9896 27.7604 37.599 27.9766 37.1094 28.1328C36.625 28.2891 36.0104 28.3672 35.2656 28.3672C33.8594 28.3672 32.862 28.125 32.2734 27.6406C31.6849 27.1615 31.3906 26.5521 31.3906 25.8125C31.3906 25.7396 31.3932 25.651 31.3984 25.5469ZM33.3594 20.6797C33.3594 21.5599 33.5286 22.2057 33.8672 22.6172C34.2109 23.0234 34.6328 23.2266 35.1328 23.2266C35.6693 23.2266 36.1224 23.0182 36.4922 22.6016C36.862 22.1797 37.0469 21.5573 37.0469 20.7344C37.0469 19.875 36.8698 19.237 36.5156 18.8203C36.1615 18.4036 35.7135 18.1953 35.1719 18.1953C34.6458 18.1953 34.2109 18.401 33.8672 18.8125C33.5286 19.2188 33.3594 19.8411 33.3594 20.6797ZM43.0234 19.2344L41.0312 18.875C41.2552 18.0729 41.6406 17.4792 42.1875 17.0938C42.7344 16.7083 43.5469 16.5156 44.625 16.5156C45.6042 16.5156 46.3333 16.6328 46.8125 16.8672C47.2917 17.0964 47.6276 17.3906 47.8203 17.75C48.0182 18.1042 48.1172 18.7578 48.1172 19.7109L48.0938 22.2734C48.0938 23.0026 48.1276 23.5417 48.1953 23.8906C48.2682 24.2344 48.401 24.6042 48.5938 25H46.4219C46.3646 24.8542 46.2943 24.638 46.2109 24.3516C46.1745 24.2214 46.1484 24.1354 46.1328 24.0938C45.7578 24.4583 45.3568 24.7318 44.9297 24.9141C44.5026 25.0964 44.0469 25.1875 43.5625 25.1875C42.7083 25.1875 42.0339 24.9557 41.5391 24.4922C41.0495 24.0286 40.8047 23.4427 40.8047 22.7344C40.8047 22.2656 40.9167 21.849 41.1406 21.4844C41.3646 21.1146 41.6771 20.8333 42.0781 20.6406C42.4844 20.4427 43.0677 20.2708 43.8281 20.125C44.8542 19.9323 45.5651 19.7526 45.9609 19.5859V19.3672C45.9609 18.9453 45.8568 18.6458 45.6484 18.4688C45.4401 18.2865 45.0469 18.1953 44.4688 18.1953C44.0781 18.1953 43.7734 18.2734 43.5547 18.4297C43.3359 18.5807 43.1589 18.849 43.0234 19.2344ZM45.9609 21.0156C45.6797 21.1094 45.2344 21.2214 44.625 21.3516C44.0156 21.4818 43.6172 21.6094 43.4297 21.7344C43.1432 21.9375 43 22.1953 43 22.5078C43 22.8151 43.1146 23.0807 43.3438 23.3047C43.5729 23.5286 43.8646 23.6406 44.2188 23.6406C44.6146 23.6406 44.9922 23.5104 45.3516 23.25C45.6172 23.0521 45.7917 22.8099 45.875 22.5234C45.9323 22.3359 45.9609 21.9792 45.9609 21.4531V21.0156ZM52.3906 25H50.1953V16.7031H52.2344V17.8828C52.5833 17.3255 52.8958 16.9583 53.1719 16.7812C53.4531 16.6042 53.7708 16.5156 54.125 16.5156C54.625 16.5156 55.1068 16.6536 55.5703 16.9297L54.8906 18.8438C54.5208 18.6042 54.1771 18.4844 53.8594 18.4844C53.5521 18.4844 53.2917 18.5703 53.0781 18.7422C52.8646 18.9089 52.6953 19.2135 52.5703 19.6562C52.4505 20.099 52.3906 21.026 52.3906 22.4375V25ZM66.3203 20.7891V18.8594H71.3047V23.4219C70.8203 23.8906 70.1172 24.3047 69.1953 24.6641C68.2786 25.0182 67.349 25.1953 66.4062 25.1953C65.2083 25.1953 64.1641 24.9453 63.2734 24.4453C62.3828 23.9401 61.7135 23.2214 61.2656 22.2891C60.8177 21.3516 60.5938 20.3333 60.5938 19.2344C60.5938 18.0417 60.8438 16.9818 61.3438 16.0547C61.8438 15.1276 62.5755 14.4167 63.5391 13.9219C64.2734 13.5417 65.1875 13.3516 66.2812 13.3516C67.7031 13.3516 68.8125 13.651 69.6094 14.25C70.4115 14.8438 70.9271 15.6667 71.1562 16.7188L68.8594 17.1484C68.6979 16.5859 68.3932 16.1432 67.9453 15.8203C67.5026 15.4922 66.9479 15.3281 66.2812 15.3281C65.2708 15.3281 64.4661 15.6484 63.8672 16.2891C63.2734 16.9297 62.9766 17.8802 62.9766 19.1406C62.9766 20.5 63.2786 21.5208 63.8828 22.2031C64.487 22.8802 65.2786 23.2188 66.2578 23.2188C66.7422 23.2188 67.2266 23.125 67.7109 22.9375C68.2005 22.7448 68.6198 22.513 68.9688 22.2422V20.7891H66.3203ZM78.8906 25V23.7578C78.5885 24.2005 78.1901 24.5495 77.6953 24.8047C77.2057 25.0599 76.6875 25.1875 76.1406 25.1875C75.5833 25.1875 75.0833 25.0651 74.6406 24.8203C74.1979 24.5755 73.8776 24.2318 73.6797 23.7891C73.4818 23.3464 73.3828 22.7344 73.3828 21.9531V16.7031H75.5781V20.5156C75.5781 21.6823 75.6172 22.3984 75.6953 22.6641C75.7786 22.9245 75.9271 23.1328 76.1406 23.2891C76.3542 23.4401 76.625 23.5156 76.9531 23.5156C77.3281 23.5156 77.6641 23.4141 77.9609 23.2109C78.2578 23.0026 78.4609 22.7474 78.5703 22.4453C78.6797 22.138 78.7344 21.3906 78.7344 20.2031V16.7031H80.9297V25H78.8906ZM82.3281 25V23.2891L85.4375 19.7188C85.9479 19.1354 86.3255 18.7214 86.5703 18.4766C86.3151 18.4922 85.9792 18.5026 85.5625 18.5078L82.6328 18.5234V16.7031H89.4922V18.2578L86.3203 21.9141L85.2031 23.125C85.8125 23.0885 86.1901 23.0703 86.3359 23.0703H89.7344V25H82.3281ZM91.0469 16.7031H93.0703V17.8359C93.7943 16.9557 94.6562 16.5156 95.6562 16.5156C96.1875 16.5156 96.6484 16.625 97.0391 16.8438C97.4297 17.0625 97.75 17.3932 98 17.8359C98.3646 17.3932 98.7578 17.0625 99.1797 16.8438C99.6016 16.625 100.052 16.5156 100.531 16.5156C101.141 16.5156 101.656 16.6406 102.078 16.8906C102.5 17.1354 102.815 17.4974 103.023 17.9766C103.174 18.3307 103.25 18.9036 103.25 19.6953V25H101.055V20.2578C101.055 19.4349 100.979 18.9036 100.828 18.6641C100.625 18.3516 100.312 18.1953 99.8906 18.1953C99.5833 18.1953 99.2943 18.2891 99.0234 18.4766C98.7526 18.6641 98.5573 18.9401 98.4375 19.3047C98.3177 19.6641 98.2578 20.2344 98.2578 21.0156V25H96.0625V20.4531C96.0625 19.6458 96.0234 19.125 95.9453 18.8906C95.8672 18.6562 95.7448 18.4818 95.5781 18.3672C95.4167 18.2526 95.1953 18.1953 94.9141 18.1953C94.5755 18.1953 94.2708 18.2865 94 18.4688C93.7292 18.651 93.5339 18.9141 93.4141 19.2578C93.2995 19.6016 93.2422 20.1719 93.2422 20.9688V25H91.0469V16.7031ZM107.086 19.2344L105.094 18.875C105.318 18.0729 105.703 17.4792 106.25 17.0938C106.797 16.7083 107.609 16.5156 108.688 16.5156C109.667 16.5156 110.396 16.6328 110.875 16.8672C111.354 17.0964 111.69 17.3906 111.883 17.75C112.081 18.1042 112.18 18.7578 112.18 19.7109L112.156 22.2734C112.156 23.0026 112.19 23.5417 112.258 23.8906C112.331 24.2344 112.464 24.6042 112.656 25H110.484C110.427 24.8542 110.357 24.638 110.273 24.3516C110.237 24.2214 110.211 24.1354 110.195 24.0938C109.82 24.4583 109.419 24.7318 108.992 24.9141C108.565 25.0964 108.109 25.1875 107.625 25.1875C106.771 25.1875 106.096 24.9557 105.602 24.4922C105.112 24.0286 104.867 23.4427 104.867 22.7344C104.867 22.2656 104.979 21.849 105.203 21.4844C105.427 21.1146 105.74 20.8333 106.141 20.6406C106.547 20.4427 107.13 20.2708 107.891 20.125C108.917 19.9323 109.628 19.7526 110.023 19.5859V19.3672C110.023 18.9453 109.919 18.6458 109.711 18.4688C109.503 18.2865 109.109 18.1953 108.531 18.1953C108.141 18.1953 107.836 18.2734 107.617 18.4297C107.398 18.5807 107.221 18.849 107.086 19.2344ZM110.023 21.0156C109.742 21.1094 109.297 21.2214 108.688 21.3516C108.078 21.4818 107.68 21.6094 107.492 21.7344C107.206 21.9375 107.062 22.1953 107.062 22.5078C107.062 22.8151 107.177 23.0807 107.406 23.3047C107.635 23.5286 107.927 23.6406 108.281 23.6406C108.677 23.6406 109.055 23.5104 109.414 23.25C109.68 23.0521 109.854 22.8099 109.938 22.5234C109.995 22.3359 110.023 21.9792 110.023 21.4531V21.0156ZM121.898 25H119.703V20.7656C119.703 19.8698 119.656 19.2917 119.562 19.0312C119.469 18.7656 119.315 18.5599 119.102 18.4141C118.893 18.2682 118.641 18.1953 118.344 18.1953C117.964 18.1953 117.622 18.2995 117.32 18.5078C117.018 18.7161 116.81 18.9922 116.695 19.3359C116.586 19.6797 116.531 20.3151 116.531 21.2422V25H114.336V16.7031H116.375V17.9219C117.099 16.9844 118.01 16.5156 119.109 16.5156C119.594 16.5156 120.036 16.6042 120.438 16.7812C120.839 16.9531 121.141 17.1745 121.344 17.4453C121.552 17.7161 121.695 18.0234 121.773 18.3672C121.857 18.7109 121.898 19.2031 121.898 19.8438V25Z" fill="black"/>
</svg>
