<svg width="64" height="64" viewBox="0 0 64 64" fill="none" xmlns="http://www.w3.org/2000/svg">
    <g clip-path="url(#clip0_806_384)">
        <path d="M15.4375 39.3203L19.0703 39.7695C18.4974 41.8919 17.4362 43.5391 15.8867 44.7109C14.3372 45.8828 12.3581 46.4688 9.94922 46.4688C6.91536 46.4688 4.50651 45.5378 2.72266 43.6758C0.951823 41.8008 0.0664063 39.1771 0.0664063 35.8047C0.0664063 32.3151 0.964844 29.6068 2.76172 27.6797C4.55859 25.7526 6.88932 24.7891 9.75391 24.7891C12.5273 24.7891 14.793 25.7331 16.5508 27.6211C18.3086 29.5091 19.1875 32.1654 19.1875 35.5898C19.1875 35.7982 19.181 36.1107 19.168 36.5273H3.69922C3.82943 38.806 4.47396 40.5508 5.63281 41.7617C6.79167 42.9727 8.23698 43.5781 9.96875 43.5781C11.2578 43.5781 12.3581 43.2396 13.2695 42.5625C14.181 41.8854 14.9036 40.8047 15.4375 39.3203ZM3.89453 33.6367H15.4766C15.3203 31.8919 14.8776 30.5833 14.1484 29.7109C13.0286 28.3568 11.5768 27.6797 9.79297 27.6797C8.17839 27.6797 6.81771 28.2201 5.71094 29.3008C4.61719 30.3815 4.01172 31.8268 3.89453 33.6367ZM22.8594 47.7188L26.2773 48.2266C26.4206 49.2812 26.8177 50.0495 27.4688 50.5312C28.3411 51.1823 29.5326 51.5078 31.043 51.5078C32.6706 51.5078 33.9271 51.1823 34.8125 50.5312C35.6979 49.8802 36.2969 48.9687 36.6094 47.7969C36.7917 47.0807 36.8763 45.5768 36.8633 43.2852C35.3268 45.0951 33.4128 46 31.1211 46C28.2695 46 26.0625 44.9714 24.5 42.9141C22.9375 40.8568 22.1563 38.3893 22.1563 35.5117C22.1563 33.5326 22.5143 31.7096 23.2305 30.043C23.9466 28.3633 24.9818 27.0677 26.3359 26.1562C27.7031 25.2448 29.3047 24.7891 31.1406 24.7891C33.5885 24.7891 35.6068 25.7786 37.1953 27.7578V25.2578H40.4375L40.4375 43.1875C40.4375 46.4167 40.1055 48.7018 39.4414 50.043C38.7904 51.3971 37.7487 52.4648 36.3164 53.2461C34.8971 54.0273 33.1458 54.418 31.0625 54.418C28.5885 54.418 26.5898 53.8581 25.0664 52.7383C23.543 51.6315 22.8073 49.9583 22.8594 47.7188ZM25.7695 35.2578C25.7695 37.9792 26.3099 39.9648 27.3906 41.2148C28.4714 42.4648 29.8255 43.0898 31.4531 43.0898C33.0677 43.0898 34.4219 42.4714 35.5156 41.2344C36.6094 39.9844 37.1563 38.0312 37.1562 35.375C37.1562 32.8359 36.5898 30.9219 35.457 29.6328C34.3372 28.3437 32.9831 27.6992 31.3945 27.6992C29.832 27.6992 28.5039 28.3372 27.4102 29.6133C26.3164 30.8763 25.7695 32.7578 25.7695 35.2578ZM45.125 47.7187L48.543 48.2266C48.6862 49.2812 49.0833 50.0495 49.7344 50.5312C50.6068 51.1823 51.7982 51.5078 53.3086 51.5078C54.9362 51.5078 56.1927 51.1823 57.0781 50.5312C57.9635 49.8802 58.5625 48.9687 58.875 47.7969C59.0573 47.0807 59.1419 45.5768 59.1289 43.2852C57.5924 45.0951 55.6784 46 53.3867 46C50.5352 46 48.3281 44.9714 46.7656 42.9141C45.2031 40.8568 44.4219 38.3893 44.4219 35.5117C44.4219 33.5326 44.7799 31.7096 45.4961 30.043C46.2122 28.3633 47.2474 27.0677 48.6016 26.1562C49.9688 25.2448 51.5703 24.7891 53.4062 24.7891C55.8542 24.7891 57.8724 25.7786 59.4609 27.7578V25.2578H62.7031V43.1875C62.7031 46.4167 62.3711 48.7018 61.707 50.043C61.056 51.3971 60.0143 52.4648 58.582 53.2461C57.1628 54.0273 55.4115 54.418 53.3281 54.418C50.8542 54.418 48.8555 53.8581 47.332 52.7383C45.8086 51.6315 45.0729 49.9583 45.125 47.7187ZM48.0352 35.2578C48.0352 37.9792 48.5755 39.9648 49.6563 41.2148C50.737 42.4648 52.0911 43.0898 53.7188 43.0898C55.3333 43.0898 56.6875 42.4714 57.7813 41.2344C58.875 39.9844 59.4219 38.0312 59.4219 35.375C59.4219 32.8359 58.8555 30.9219 57.7227 29.6328C56.6029 28.3437 55.2487 27.6992 53.6602 27.6992C52.0977 27.6992 50.7695 28.3372 49.6758 29.6133C48.582 30.8763 48.0352 32.7578 48.0352 35.2578Z" fill="white" />
    </g>
    <defs>
        <clipPath id="clip0_806_384">
            <rect width="64" height="64" fill="white" />
        </clipPath>
    </defs>
</svg>