<svg width="300" height="300" viewBox="0 0 300 300" fill="none" xmlns="http://www.w3.org/2000/svg">
<path d="M161.34 182.086H136.438C136.372 178.505 136.34 176.324 136.34 175.543C136.34 167.47 137.674 160.829 140.344 155.621C143.013 150.413 148.352 144.553 156.359 138.043C164.367 131.533 169.152 127.268 170.715 125.25C173.124 122.06 174.328 118.544 174.328 114.703C174.328 109.365 172.18 104.807 167.883 101.031C163.651 97.1901 157.922 95.2695 150.695 95.2695C143.729 95.2695 137.902 97.2552 133.215 101.227C128.527 105.198 125.305 111.253 123.547 119.391L98.3516 116.266C99.0677 104.612 104.016 94.7161 113.195 86.5781C122.44 78.4401 134.549 74.3711 149.523 74.3711C165.279 74.3711 177.811 78.5052 187.121 86.7734C196.431 94.9766 201.086 104.547 201.086 115.484C201.086 121.539 199.361 127.268 195.91 132.672C192.525 138.076 185.233 145.432 174.035 154.742C168.241 159.56 164.628 163.434 163.195 166.363C161.828 169.293 161.21 174.534 161.34 182.086ZM136.438 219V191.559H163.879V219H136.438Z" fill="black"/>
</svg>
