<svg width="32" height="32" viewBox="0 0 32 32" fill="none" xmlns="http://www.w3.org/2000/svg">
<path d="M2.2 16V4.528H10.664V6.496H4.568V9.008H10.2V10.976H4.568V14.032H10.92V16H2.2ZM20.4559 16H18.3119V15.2C17.7519 16.064 16.8879 16.208 15.7999 16.208C13.1919 16.192 12.2479 14.496 12.2479 11.76C12.2479 8.48 13.5919 7.36 15.7679 7.36C17.1759 7.36 17.8639 7.824 18.2319 8.304V4.528H20.4559V16ZM18.2959 11.776C18.2959 9.696 17.7359 9.184 16.4719 9.184C14.9199 9.184 14.5359 9.952 14.5359 11.728C14.5359 13.936 15.1279 14.384 16.4239 14.384C17.6559 14.384 18.2959 13.984 18.2959 11.776Z" fill="black"/>
<path d="M12.712 22.84V24.184C12.712 27.992 10.616 29.256 7.336 29.256C4.488 29.256 1.688 28.184 1.688 23.256C1.688 18.056 4.776 17.272 7.336 17.272C10.424 17.272 12.312 18.408 12.536 21.096H10.168C10.024 19.976 9.4 19.288 7.4 19.288C5.208 19.288 4.088 20.12 4.088 23.272C4.088 26.584 5.304 27.24 7.352 27.24C9.688 27.24 10.344 26.504 10.344 24.808H7.688V22.84H12.712ZM20.0451 29V28.104C19.4691 29.032 18.4291 29.208 17.4371 29.208C15.4051 29.208 14.5251 28.456 14.5251 26.04V20.568H16.7491V25.896C16.7491 27.032 17.1011 27.384 18.2211 27.384C19.3891 27.384 19.9171 27 19.9171 25.432V20.568H22.1411V29H20.0451ZM23.5384 29V27.32L27.8584 22.36H23.8424V20.568H30.7224V22.296L26.4184 27.176H30.9144V29H23.5384Z" fill="black"/>
</svg>
