<svg width="1200" height="630" viewBox="0 0 1200 630" fill="none" xmlns="http://www.w3.org/2000/svg">
<path d="M254.5 331.5V259.8H307.4V272.1H269.3V287.8H304.5V300.1H269.3V319.2H309V331.5H254.5ZM368.599 331.5H355.199V326.5C351.699 331.9 346.299 332.8 339.499 332.8C323.199 332.7 317.299 322.1 317.299 305C317.299 284.5 325.699 277.5 339.299 277.5C348.099 277.5 352.399 280.4 354.699 283.4V259.8H368.599V331.5ZM355.099 305.1C355.099 292.1 351.599 288.9 343.699 288.9C333.999 288.9 331.599 293.7 331.599 304.8C331.599 318.6 335.299 321.4 343.399 321.4C351.099 321.4 355.099 318.9 355.099 305.1ZM380.132 337H395.532C396.032 339.6 396.732 342.6 405.432 342.6C414.432 342.6 415.932 339.4 415.932 330.6V325.7C413.032 329.7 408.932 331.6 401.432 331.6C386.432 331.6 378.732 324 378.732 304.6C378.732 285.4 386.232 277.5 400.532 277.5C410.632 277.5 414.832 281.4 416.632 284.5V278.8H429.832V327.9C429.832 342.4 428.632 352.9 404.132 352.9C389.632 352.9 380.432 349.2 380.132 337ZM393.032 304.8C393.032 316.1 395.532 320.2 404.132 320.2C413.232 320.2 416.032 315.6 416.032 304.3C416.032 293.2 413.332 288.9 404.032 288.9C396.332 288.9 393.032 291.9 393.032 304.8ZM453.865 294.8H440.765C441.465 281.2 449.265 277.5 463.465 277.5C478.065 277.5 485.765 281.4 485.765 292.9V331.5H472.465V327.5C469.765 330.3 464.665 332.8 456.265 332.8C443.665 332.8 439.165 327.2 439.165 318.2C439.165 306.5 446.765 302.1 454.465 300.9L471.865 298.2V295C471.865 290.1 469.365 288.7 462.865 288.7C455.965 288.7 454.565 290.3 453.865 294.8ZM471.865 311.4V307.2L462.165 308.8C456.865 309.6 453.065 310.7 453.065 316.3C453.065 320.3 455.065 322.5 461.265 322.5C469.765 322.5 471.865 317.9 471.865 311.4ZM511.931 331.5H498.031V278.8H511.131V285.4C514.331 279.9 517.831 277.7 524.731 277.7C527.231 277.7 528.331 278 528.331 278V291.3C528.331 291.3 526.731 291 523.931 291C512.931 291 511.931 300 511.931 312V331.5ZM631.43 293V301.4C631.43 325.2 618.33 333.1 597.83 333.1C580.03 333.1 562.53 326.4 562.53 295.6C562.53 263.1 581.83 258.2 597.83 258.2C617.13 258.2 628.93 265.3 630.33 282.1H615.53C614.63 275.1 610.73 270.8 598.23 270.8C584.53 270.8 577.53 276 577.53 295.7C577.53 316.4 585.13 320.5 597.93 320.5C612.53 320.5 616.63 315.9 616.63 305.3H600.03V293H631.43ZM677.263 331.5V325.9C673.663 331.7 667.163 332.8 660.963 332.8C648.263 332.8 642.763 328.1 642.763 313V278.8H656.663V312.1C656.663 319.2 658.863 321.4 665.863 321.4C673.163 321.4 676.463 319 676.463 309.2V278.8H690.363V331.5H677.263ZM699.095 331.5V321L726.095 290H700.995V278.8H743.995V289.6L717.095 320.1H745.195V331.5H699.095ZM753.495 278.8H766.695V284.4C770.095 279.5 774.795 277.5 782.495 277.5C790.695 277.5 794.195 279.8 796.995 284.9C799.395 281.4 802.795 277.5 812.795 277.5C826.495 277.5 829.795 284.8 829.795 296V331.5H815.895V300.2C815.895 291.7 814.395 288.9 807.995 288.9C799.195 288.9 798.595 294.2 798.595 306.3V331.5H784.695V300.8C784.695 292.1 784.695 288.9 776.695 288.9C768.095 288.9 767.395 292.7 767.395 305.9V331.5H753.495V278.8ZM853.963 294.8H840.863C841.563 281.2 849.363 277.5 863.563 277.5C878.163 277.5 885.863 281.4 885.863 292.9V331.5H872.563V327.5C869.863 330.3 864.763 332.8 856.363 332.8C843.763 332.8 839.263 327.2 839.263 318.2C839.263 306.5 846.863 302.1 854.563 300.9L871.963 298.2V295C871.963 290.1 869.463 288.7 862.963 288.7C856.063 288.7 854.663 290.3 853.963 294.8ZM871.963 311.4V307.2L862.263 308.8C856.963 309.6 853.163 310.7 853.163 316.3C853.163 320.3 855.163 322.5 861.363 322.5C869.863 322.5 871.963 317.9 871.963 311.4ZM932.129 331.5V301.2C932.129 293.1 932.029 288.9 923.129 288.9C913.229 288.9 912.129 294.1 912.129 306.5V331.5H898.229V278.8H911.429V285.6C915.229 280.5 919.329 277.5 929.029 277.5C942.529 277.5 946.029 283.3 946.029 299.3V331.5H932.129Z" fill="black"/>
<path d="M360.679 392.713C359.557 392.713 358.591 392.486 357.781 392.031C356.976 391.572 356.356 390.923 355.92 390.085C355.485 389.242 355.267 388.246 355.267 387.095C355.267 385.973 355.485 384.988 355.92 384.141C356.356 383.293 356.969 382.633 357.76 382.159C358.555 381.686 359.488 381.449 360.558 381.449C361.278 381.449 361.948 381.565 362.568 381.797C363.193 382.024 363.738 382.367 364.202 382.827C364.67 383.286 365.035 383.864 365.295 384.56C365.556 385.251 365.686 386.061 365.686 386.989V387.82H356.474V385.945H362.838C362.838 385.509 362.743 385.123 362.554 384.787C362.365 384.451 362.102 384.188 361.766 383.999C361.434 383.804 361.048 383.707 360.608 383.707C360.149 383.707 359.741 383.814 359.386 384.027C359.036 384.235 358.761 384.517 358.562 384.872C358.364 385.223 358.262 385.613 358.257 386.044V387.827C358.257 388.366 358.357 388.833 358.555 389.226C358.759 389.619 359.045 389.922 359.415 390.135C359.784 390.348 360.222 390.455 360.729 390.455C361.065 390.455 361.373 390.407 361.652 390.312C361.931 390.218 362.17 390.076 362.369 389.886C362.568 389.697 362.72 389.465 362.824 389.19L365.622 389.375C365.48 390.047 365.189 390.634 364.749 391.136C364.313 391.634 363.75 392.022 363.058 392.301C362.372 392.576 361.579 392.713 360.679 392.713ZM370.686 377.955V392.5H367.661V377.955H370.686ZM378.081 392.713C376.959 392.713 375.993 392.486 375.184 392.031C374.379 391.572 373.758 390.923 373.323 390.085C372.887 389.242 372.669 388.246 372.669 387.095C372.669 385.973 372.887 384.988 373.323 384.141C373.758 383.293 374.372 382.633 375.162 382.159C375.958 381.686 376.891 381.449 377.961 381.449C378.68 381.449 379.35 381.565 379.971 381.797C380.596 382.024 381.14 382.367 381.604 382.827C382.073 383.286 382.437 383.864 382.698 384.56C382.958 385.251 383.088 386.061 383.088 386.989V387.82H373.877V385.945H380.24C380.24 385.509 380.146 385.123 379.956 384.787C379.767 384.451 379.504 384.188 379.168 383.999C378.837 383.804 378.451 383.707 378.01 383.707C377.551 383.707 377.144 383.814 376.789 384.027C376.438 384.235 376.164 384.517 375.965 384.872C375.766 385.223 375.664 385.613 375.659 386.044V387.827C375.659 388.366 375.759 388.833 375.958 389.226C376.161 389.619 376.448 389.922 376.817 390.135C377.186 390.348 377.624 390.455 378.131 390.455C378.467 390.455 378.775 390.407 379.054 390.312C379.334 390.218 379.573 390.076 379.772 389.886C379.971 389.697 380.122 389.465 380.226 389.19L383.025 389.375C382.882 390.047 382.591 390.634 382.151 391.136C381.715 391.634 381.152 392.022 380.461 392.301C379.774 392.576 378.981 392.713 378.081 392.713ZM389.992 392.713C388.874 392.713 387.913 392.476 387.108 392.003C386.308 391.525 385.693 390.862 385.262 390.014C384.836 389.167 384.623 388.191 384.623 387.088C384.623 385.971 384.838 384.991 385.269 384.148C385.704 383.3 386.322 382.64 387.123 382.166C387.923 381.688 388.874 381.449 389.978 381.449C390.929 381.449 391.763 381.622 392.478 381.967C393.193 382.313 393.758 382.798 394.175 383.423C394.592 384.048 394.821 384.782 394.864 385.625H392.009C391.928 385.08 391.715 384.643 391.37 384.311C391.029 383.975 390.581 383.807 390.027 383.807C389.559 383.807 389.149 383.935 388.799 384.19C388.453 384.441 388.183 384.808 387.989 385.291C387.795 385.774 387.698 386.359 387.698 387.045C387.698 387.741 387.792 388.333 387.982 388.821C388.176 389.309 388.448 389.68 388.799 389.936C389.149 390.192 389.559 390.32 390.027 390.32C390.373 390.32 390.683 390.249 390.958 390.107C391.237 389.964 391.467 389.759 391.647 389.489C391.831 389.214 391.952 388.885 392.009 388.501H394.864C394.817 389.335 394.589 390.069 394.182 390.703C393.78 391.333 393.223 391.825 392.513 392.18C391.803 392.536 390.962 392.713 389.992 392.713ZM402.604 381.591V383.864H396.034V381.591H402.604ZM397.526 378.977H400.551V389.148C400.551 389.427 400.594 389.645 400.679 389.801C400.764 389.953 400.883 390.059 401.034 390.121C401.19 390.182 401.37 390.213 401.574 390.213C401.716 390.213 401.858 390.201 402 390.178C402.142 390.149 402.251 390.128 402.327 390.114L402.803 392.365C402.651 392.412 402.438 392.467 402.163 392.528C401.889 392.595 401.555 392.635 401.162 392.649C400.433 392.678 399.794 392.58 399.244 392.358C398.7 392.135 398.276 391.79 397.973 391.321C397.67 390.852 397.521 390.26 397.526 389.545V378.977ZM404.575 392.5V381.591H407.508V383.494H407.621C407.82 382.817 408.154 382.306 408.623 381.96C409.092 381.61 409.631 381.435 410.242 381.435C410.394 381.435 410.557 381.444 410.732 381.463C410.907 381.482 411.061 381.508 411.194 381.541V384.226C411.052 384.183 410.855 384.145 410.604 384.112C410.353 384.079 410.124 384.062 409.915 384.062C409.47 384.062 409.073 384.16 408.722 384.354C408.377 384.543 408.102 384.808 407.898 385.149C407.7 385.49 407.6 385.883 407.6 386.328V392.5H404.575ZM417.179 392.713C416.076 392.713 415.122 392.479 414.317 392.01C413.517 391.536 412.899 390.878 412.463 390.036C412.028 389.188 411.81 388.205 411.81 387.088C411.81 385.961 412.028 384.976 412.463 384.134C412.899 383.286 413.517 382.628 414.317 382.159C415.122 381.686 416.076 381.449 417.179 381.449C418.283 381.449 419.234 381.686 420.034 382.159C420.839 382.628 421.46 383.286 421.895 384.134C422.331 384.976 422.549 385.961 422.549 387.088C422.549 388.205 422.331 389.188 421.895 390.036C421.46 390.878 420.839 391.536 420.034 392.01C419.234 392.479 418.283 392.713 417.179 392.713ZM417.194 390.369C417.695 390.369 418.114 390.227 418.451 389.943C418.787 389.654 419.04 389.261 419.211 388.764C419.386 388.267 419.473 387.701 419.473 387.067C419.473 386.432 419.386 385.866 419.211 385.369C419.04 384.872 418.787 384.479 418.451 384.19C418.114 383.902 417.695 383.757 417.194 383.757C416.687 383.757 416.261 383.902 415.915 384.19C415.574 384.479 415.316 384.872 415.141 385.369C414.971 385.866 414.885 386.432 414.885 387.067C414.885 387.701 414.971 388.267 415.141 388.764C415.316 389.261 415.574 389.654 415.915 389.943C416.261 390.227 416.687 390.369 417.194 390.369ZM427.542 386.193V392.5H424.516V381.591H427.4V383.516H427.527C427.769 382.881 428.174 382.379 428.742 382.01C429.31 381.636 429.999 381.449 430.809 381.449C431.566 381.449 432.227 381.615 432.79 381.946C433.354 382.277 433.792 382.751 434.104 383.366C434.417 383.977 434.573 384.706 434.573 385.554V392.5H431.547V386.094C431.552 385.426 431.382 384.905 431.036 384.531C430.69 384.152 430.214 383.963 429.608 383.963C429.201 383.963 428.841 384.051 428.529 384.226C428.221 384.401 427.98 384.657 427.804 384.993C427.634 385.324 427.546 385.724 427.542 386.193ZM436.957 392.5V381.591H439.983V392.5H436.957ZM438.477 380.185C438.027 380.185 437.642 380.036 437.32 379.737C437.002 379.434 436.844 379.072 436.844 378.651C436.844 378.234 437.002 377.876 437.32 377.578C437.642 377.275 438.027 377.124 438.477 377.124C438.927 377.124 439.311 377.275 439.628 377.578C439.95 377.876 440.111 378.234 440.111 378.651C440.111 379.072 439.95 379.434 439.628 379.737C439.311 380.036 438.927 380.185 438.477 380.185ZM447.336 392.713C446.218 392.713 445.257 392.476 444.452 392.003C443.652 391.525 443.036 390.862 442.605 390.014C442.179 389.167 441.966 388.191 441.966 387.088C441.966 385.971 442.182 384.991 442.613 384.148C443.048 383.3 443.666 382.64 444.466 382.166C445.266 381.688 446.218 381.449 447.321 381.449C448.273 381.449 449.106 381.622 449.821 381.967C450.536 382.313 451.102 382.798 451.519 383.423C451.935 384.048 452.165 384.782 452.208 385.625H449.353C449.272 385.08 449.059 384.643 448.713 384.311C448.373 383.975 447.925 383.807 447.371 383.807C446.902 383.807 446.493 383.935 446.142 384.19C445.797 384.441 445.527 384.808 445.333 385.291C445.139 385.774 445.042 386.359 445.042 387.045C445.042 387.741 445.136 388.333 445.326 388.821C445.52 389.309 445.792 389.68 446.142 389.936C446.493 390.192 446.902 390.32 447.371 390.32C447.717 390.32 448.027 390.249 448.301 390.107C448.581 389.964 448.81 389.759 448.99 389.489C449.175 389.214 449.296 388.885 449.353 388.501H452.208C452.16 389.335 451.933 390.069 451.526 390.703C451.123 391.333 450.567 391.825 449.857 392.18C449.147 392.536 448.306 392.713 447.336 392.713ZM463.703 392.713C462.585 392.713 461.624 392.476 460.819 392.003C460.019 391.525 459.404 390.862 458.973 390.014C458.547 389.167 458.333 388.191 458.333 387.088C458.333 385.971 458.549 384.991 458.98 384.148C459.415 383.3 460.033 382.64 460.833 382.166C461.634 381.688 462.585 381.449 463.689 381.449C464.64 381.449 465.474 381.622 466.189 381.967C466.904 382.313 467.469 382.798 467.886 383.423C468.303 384.048 468.532 384.782 468.575 385.625H465.72C465.639 385.08 465.426 384.643 465.081 384.311C464.74 383.975 464.292 383.807 463.738 383.807C463.27 383.807 462.86 383.935 462.51 384.19C462.164 384.441 461.894 384.808 461.7 385.291C461.506 385.774 461.409 386.359 461.409 387.045C461.409 387.741 461.503 388.333 461.693 388.821C461.887 389.309 462.159 389.68 462.51 389.936C462.86 390.192 463.27 390.32 463.738 390.32C464.084 390.32 464.394 390.249 464.669 390.107C464.948 389.964 465.178 389.759 465.358 389.489C465.542 389.214 465.663 388.885 465.72 388.501H468.575C468.528 389.335 468.3 390.069 467.893 390.703C467.491 391.333 466.934 391.825 466.224 392.18C465.514 392.536 464.673 392.713 463.703 392.713ZM475.441 392.713C474.338 392.713 473.384 392.479 472.579 392.01C471.779 391.536 471.161 390.878 470.725 390.036C470.29 389.188 470.072 388.205 470.072 387.088C470.072 385.961 470.29 384.976 470.725 384.134C471.161 383.286 471.779 382.628 472.579 382.159C473.384 381.686 474.338 381.449 475.441 381.449C476.544 381.449 477.496 381.686 478.296 382.159C479.101 382.628 479.721 383.286 480.157 384.134C480.593 384.976 480.81 385.961 480.81 387.088C480.81 388.205 480.593 389.188 480.157 390.036C479.721 390.878 479.101 391.536 478.296 392.01C477.496 392.479 476.544 392.713 475.441 392.713ZM475.455 390.369C475.957 390.369 476.376 390.227 476.712 389.943C477.049 389.654 477.302 389.261 477.472 388.764C477.647 388.267 477.735 387.701 477.735 387.067C477.735 386.432 477.647 385.866 477.472 385.369C477.302 384.872 477.049 384.479 476.712 384.19C476.376 383.902 475.957 383.757 475.455 383.757C474.949 383.757 474.522 383.902 474.177 384.19C473.836 384.479 473.578 384.872 473.403 385.369C473.232 385.866 473.147 386.432 473.147 387.067C473.147 387.701 473.232 388.267 473.403 388.764C473.578 389.261 473.836 389.654 474.177 389.943C474.522 390.227 474.949 390.369 475.455 390.369ZM482.778 392.5V381.591H485.661V383.516H485.789C486.016 382.876 486.395 382.372 486.925 382.003C487.456 381.634 488.09 381.449 488.829 381.449C489.577 381.449 490.214 381.636 490.739 382.01C491.265 382.379 491.615 382.881 491.79 383.516H491.904C492.127 382.891 492.529 382.391 493.112 382.017C493.699 381.638 494.392 381.449 495.192 381.449C496.21 381.449 497.037 381.773 497.671 382.422C498.31 383.066 498.63 383.98 498.63 385.163V392.5H495.612V385.76C495.612 385.154 495.451 384.699 495.129 384.396C494.807 384.093 494.404 383.942 493.921 383.942C493.372 383.942 492.943 384.117 492.636 384.467C492.328 384.813 492.174 385.27 492.174 385.838V392.5H489.241V385.696C489.241 385.161 489.087 384.735 488.779 384.418C488.476 384.1 488.076 383.942 487.579 383.942C487.243 383.942 486.94 384.027 486.67 384.197C486.405 384.363 486.194 384.598 486.038 384.901C485.881 385.199 485.803 385.549 485.803 385.952V392.5H482.778ZM501.02 392.5V381.591H503.903V383.516H504.031C504.259 382.876 504.637 382.372 505.168 382.003C505.698 381.634 506.332 381.449 507.071 381.449C507.819 381.449 508.456 381.636 508.982 382.01C509.507 382.379 509.857 382.881 510.033 383.516H510.146C510.369 382.891 510.771 382.391 511.354 382.017C511.941 381.638 512.634 381.449 513.435 381.449C514.453 381.449 515.279 381.773 515.913 382.422C516.553 383.066 516.872 383.98 516.872 385.163V392.5H513.854V385.76C513.854 385.154 513.693 384.699 513.371 384.396C513.049 384.093 512.646 383.942 512.163 383.942C511.614 383.942 511.186 384.117 510.878 384.467C510.57 384.813 510.416 385.27 510.416 385.838V392.5H507.483V385.696C507.483 385.161 507.329 384.735 507.021 384.418C506.718 384.1 506.318 383.942 505.821 383.942C505.485 383.942 505.182 384.027 504.912 384.197C504.647 384.363 504.436 384.598 504.28 384.901C504.124 385.199 504.045 385.549 504.045 385.952V392.5H501.02ZM524.234 392.713C523.112 392.713 522.146 392.486 521.336 392.031C520.531 391.572 519.911 390.923 519.475 390.085C519.04 389.242 518.822 388.246 518.822 387.095C518.822 385.973 519.04 384.988 519.475 384.141C519.911 383.293 520.524 382.633 521.315 382.159C522.11 381.686 523.043 381.449 524.113 381.449C524.833 381.449 525.503 381.565 526.123 381.797C526.748 382.024 527.292 382.367 527.756 382.827C528.225 383.286 528.59 383.864 528.85 384.56C529.111 385.251 529.241 386.061 529.241 386.989V387.82H520.029V385.945H526.393C526.393 385.509 526.298 385.123 526.109 384.787C525.919 384.451 525.656 384.188 525.32 383.999C524.989 383.804 524.603 383.707 524.163 383.707C523.703 383.707 523.296 383.814 522.941 384.027C522.591 384.235 522.316 384.517 522.117 384.872C521.918 385.223 521.817 385.613 521.812 386.044V387.827C521.812 388.366 521.911 388.833 522.11 389.226C522.314 389.619 522.6 389.922 522.969 390.135C523.339 390.348 523.777 390.455 524.283 390.455C524.62 390.455 524.927 390.407 525.207 390.312C525.486 390.218 525.725 390.076 525.924 389.886C526.123 389.697 526.274 389.465 526.379 389.19L529.177 389.375C529.035 390.047 528.744 390.634 528.303 391.136C527.868 391.634 527.304 392.022 526.613 392.301C525.926 392.576 525.133 392.713 524.234 392.713ZM531.215 392.5V381.591H534.148V383.494H534.262C534.461 382.817 534.795 382.306 535.263 381.96C535.732 381.61 536.272 381.435 536.883 381.435C537.034 381.435 537.198 381.444 537.373 381.463C537.548 381.482 537.702 381.508 537.835 381.541V384.226C537.692 384.183 537.496 384.145 537.245 384.112C536.994 384.079 536.764 384.062 536.556 384.062C536.111 384.062 535.713 384.16 535.363 384.354C535.017 384.543 534.743 384.808 534.539 385.149C534.34 385.49 534.241 385.883 534.241 386.328V392.5H531.215ZM543.82 392.713C542.703 392.713 541.741 392.476 540.936 392.003C540.136 391.525 539.521 390.862 539.09 390.014C538.664 389.167 538.451 388.191 538.451 387.088C538.451 385.971 538.666 384.991 539.097 384.148C539.533 383.3 540.15 382.64 540.951 382.166C541.751 381.688 542.703 381.449 543.806 381.449C544.757 381.449 545.591 381.622 546.306 381.967C547.021 382.313 547.587 382.798 548.003 383.423C548.42 384.048 548.65 384.782 548.692 385.625H545.837C545.757 385.08 545.543 384.643 545.198 384.311C544.857 383.975 544.409 383.807 543.855 383.807C543.387 383.807 542.977 383.935 542.627 384.19C542.281 384.441 542.011 384.808 541.817 385.291C541.623 385.774 541.526 386.359 541.526 387.045C541.526 387.741 541.621 388.333 541.81 388.821C542.004 389.309 542.276 389.68 542.627 389.936C542.977 390.192 543.387 390.32 543.855 390.32C544.201 390.32 544.511 390.249 544.786 390.107C545.065 389.964 545.295 389.759 545.475 389.489C545.659 389.214 545.78 388.885 545.837 388.501H548.692C548.645 389.335 548.417 390.069 548.01 390.703C547.608 391.333 547.051 391.825 546.341 392.18C545.631 392.536 544.791 392.713 543.82 392.713ZM555.601 392.713C554.479 392.713 553.513 392.486 552.703 392.031C551.898 391.572 551.278 390.923 550.842 390.085C550.407 389.242 550.189 388.246 550.189 387.095C550.189 385.973 550.407 384.988 550.842 384.141C551.278 383.293 551.891 382.633 552.682 382.159C553.477 381.686 554.41 381.449 555.48 381.449C556.2 381.449 556.87 381.565 557.49 381.797C558.115 382.024 558.66 382.367 559.124 382.827C559.592 383.286 559.957 383.864 560.217 384.56C560.478 385.251 560.608 386.061 560.608 386.989V387.82H551.396V385.945H557.76C557.76 385.509 557.665 385.123 557.476 384.787C557.286 384.451 557.024 384.188 556.688 383.999C556.356 383.804 555.97 383.707 555.53 383.707C555.071 383.707 554.663 383.814 554.308 384.027C553.958 384.235 553.683 384.517 553.484 384.872C553.286 385.223 553.184 385.613 553.179 386.044V387.827C553.179 388.366 553.278 388.833 553.477 389.226C553.681 389.619 553.967 389.922 554.337 390.135C554.706 390.348 555.144 390.455 555.651 390.455C555.987 390.455 556.295 390.407 556.574 390.312C556.853 390.218 557.092 390.076 557.291 389.886C557.49 389.697 557.642 389.465 557.746 389.19L560.544 389.375C560.402 390.047 560.111 390.634 559.67 391.136C559.235 391.634 558.671 392.022 557.98 392.301C557.294 392.576 556.5 392.713 555.601 392.713ZM567.211 392.5V381.591H570.237V392.5H567.211ZM568.731 380.185C568.281 380.185 567.895 380.036 567.574 379.737C567.256 379.434 567.098 379.072 567.098 378.651C567.098 378.234 567.256 377.876 567.574 377.578C567.895 377.275 568.281 377.124 568.731 377.124C569.181 377.124 569.565 377.275 569.882 377.578C570.204 377.876 570.365 378.234 570.365 378.651C570.365 379.072 570.204 379.434 569.882 379.737C569.565 380.036 569.181 380.185 568.731 380.185ZM575.686 386.193V392.5H572.661V381.591H575.544V383.516H575.672C575.913 382.881 576.318 382.379 576.886 382.01C577.455 381.636 578.143 381.449 578.953 381.449C579.711 381.449 580.371 381.615 580.935 381.946C581.498 382.277 581.936 382.751 582.249 383.366C582.561 383.977 582.717 384.706 582.717 385.554V392.5H579.692V386.094C579.696 385.426 579.526 384.905 579.18 384.531C578.835 384.152 578.359 383.963 577.753 383.963C577.346 383.963 576.986 384.051 576.673 384.226C576.366 384.401 576.124 384.657 575.949 384.993C575.778 385.324 575.691 385.724 575.686 386.193ZM590.968 381.591V383.864H584.235V381.591H590.968ZM585.777 392.5V380.803C585.777 380.012 585.931 379.356 586.238 378.835C586.551 378.314 586.977 377.924 587.517 377.663C588.056 377.403 588.67 377.273 589.356 377.273C589.82 377.273 590.244 377.308 590.627 377.379C591.016 377.45 591.305 377.514 591.494 377.571L590.954 379.844C590.836 379.806 590.689 379.77 590.514 379.737C590.343 379.704 590.168 379.688 589.988 379.688C589.543 379.688 589.233 379.792 589.058 380C588.883 380.204 588.795 380.49 588.795 380.859V392.5H585.777ZM592.817 392.5V381.591H595.75V383.494H595.864C596.063 382.817 596.396 382.306 596.865 381.96C597.334 381.61 597.874 381.435 598.484 381.435C598.636 381.435 598.799 381.444 598.974 381.463C599.15 381.482 599.304 381.508 599.436 381.541V384.226C599.294 384.183 599.098 384.145 598.847 384.112C598.596 384.079 598.366 384.062 598.158 384.062C597.713 384.062 597.315 384.16 596.964 384.354C596.619 384.543 596.344 384.808 596.141 385.149C595.942 385.49 595.842 385.883 595.842 386.328V392.5H592.817ZM603.799 392.706C603.103 392.706 602.482 392.585 601.938 392.344C601.393 392.098 600.962 391.735 600.645 391.257C600.333 390.774 600.176 390.173 600.176 389.453C600.176 388.847 600.288 388.338 600.51 387.926C600.733 387.514 601.036 387.183 601.419 386.932C601.803 386.681 602.239 386.491 602.726 386.364C603.219 386.236 603.735 386.146 604.275 386.094C604.909 386.027 605.42 385.966 605.809 385.909C606.197 385.848 606.479 385.758 606.654 385.639C606.829 385.521 606.917 385.346 606.917 385.114V385.071C606.917 384.621 606.775 384.273 606.49 384.027C606.211 383.781 605.813 383.658 605.297 383.658C604.753 383.658 604.319 383.778 603.998 384.02C603.676 384.257 603.462 384.555 603.358 384.915L600.56 384.688C600.702 384.025 600.981 383.452 601.398 382.969C601.815 382.481 602.352 382.107 603.01 381.847C603.673 381.581 604.44 381.449 605.311 381.449C605.917 381.449 606.498 381.52 607.051 381.662C607.61 381.804 608.105 382.024 608.536 382.322C608.971 382.621 609.315 383.004 609.566 383.473C609.817 383.937 609.942 384.493 609.942 385.142V392.5H607.073V390.987H606.988C606.812 391.328 606.578 391.629 606.284 391.889C605.991 392.145 605.638 392.346 605.226 392.493C604.814 392.635 604.338 392.706 603.799 392.706ZM604.665 390.618C605.11 390.618 605.503 390.53 605.844 390.355C606.185 390.175 606.453 389.934 606.647 389.631C606.841 389.328 606.938 388.984 606.938 388.601V387.443C606.843 387.505 606.713 387.562 606.547 387.614C606.386 387.661 606.204 387.706 606 387.749C605.797 387.786 605.593 387.822 605.39 387.855C605.186 387.884 605.001 387.91 604.836 387.933C604.48 387.985 604.17 388.068 603.905 388.182C603.64 388.295 603.434 388.449 603.287 388.643C603.141 388.833 603.067 389.07 603.067 389.354C603.067 389.766 603.216 390.08 603.515 390.298C603.818 390.511 604.201 390.618 604.665 390.618ZM621.366 384.702L618.596 384.872C618.549 384.635 618.447 384.422 618.291 384.233C618.135 384.039 617.929 383.885 617.673 383.771C617.422 383.653 617.121 383.594 616.771 383.594C616.302 383.594 615.907 383.693 615.585 383.892C615.263 384.086 615.102 384.347 615.102 384.673C615.102 384.934 615.206 385.154 615.414 385.334C615.623 385.514 615.98 385.658 616.487 385.767L618.461 386.165C619.522 386.383 620.313 386.733 620.833 387.216C621.354 387.699 621.615 388.333 621.615 389.119C621.615 389.834 621.404 390.462 620.983 391.001C620.566 391.541 619.993 391.963 619.264 392.266C618.539 392.564 617.704 392.713 616.757 392.713C615.313 392.713 614.162 392.412 613.305 391.811C612.453 391.205 611.953 390.381 611.806 389.339L614.782 389.183C614.872 389.624 615.09 389.96 615.436 390.192C615.781 390.419 616.224 390.533 616.764 390.533C617.294 390.533 617.72 390.431 618.042 390.227C618.369 390.019 618.535 389.751 618.539 389.425C618.535 389.15 618.419 388.925 618.191 388.75C617.964 388.57 617.614 388.433 617.14 388.338L615.251 387.962C614.186 387.749 613.393 387.379 612.872 386.854C612.356 386.328 612.098 385.658 612.098 384.844C612.098 384.143 612.287 383.539 612.666 383.033C613.049 382.526 613.587 382.135 614.278 381.861C614.974 381.586 615.788 381.449 616.721 381.449C618.099 381.449 619.183 381.74 619.974 382.322C620.77 382.905 621.234 383.698 621.366 384.702ZM629.322 381.591V383.864H622.753V381.591H629.322ZM624.244 378.977H627.27V389.148C627.27 389.427 627.313 389.645 627.398 389.801C627.483 389.953 627.601 390.059 627.753 390.121C627.909 390.182 628.089 390.213 628.293 390.213C628.435 390.213 628.577 390.201 628.719 390.178C628.861 390.149 628.97 390.128 629.045 390.114L629.521 392.365C629.37 392.412 629.157 392.467 628.882 392.528C628.607 392.595 628.274 392.635 627.881 392.649C627.152 392.678 626.512 392.58 625.963 392.358C625.419 392.135 624.995 391.79 624.692 391.321C624.389 390.852 624.24 390.26 624.244 389.545V378.977ZM631.293 392.5V381.591H634.227V383.494H634.34C634.539 382.817 634.873 382.306 635.342 381.96C635.81 381.61 636.35 381.435 636.961 381.435C637.112 381.435 637.276 381.444 637.451 381.463C637.626 381.482 637.78 381.508 637.913 381.541V384.226C637.771 384.183 637.574 384.145 637.323 384.112C637.072 384.079 636.843 384.062 636.634 384.062C636.189 384.062 635.791 384.16 635.441 384.354C635.095 384.543 634.821 384.808 634.617 385.149C634.418 385.49 634.319 385.883 634.319 386.328V392.5H631.293ZM646.473 387.855V381.591H649.498V392.5H646.593V390.518H646.48C646.234 391.158 645.824 391.671 645.251 392.06C644.683 392.448 643.989 392.642 643.17 392.642C642.441 392.642 641.799 392.476 641.245 392.145C640.691 391.813 640.258 391.342 639.946 390.732C639.638 390.121 639.482 389.389 639.477 388.537V381.591H642.502V387.997C642.507 388.641 642.68 389.15 643.021 389.524C643.362 389.898 643.819 390.085 644.392 390.085C644.756 390.085 645.097 390.002 645.414 389.837C645.732 389.666 645.987 389.415 646.181 389.084C646.38 388.752 646.477 388.343 646.473 387.855ZM656.847 392.713C655.73 392.713 654.769 392.476 653.964 392.003C653.164 391.525 652.548 390.862 652.117 390.014C651.691 389.167 651.478 388.191 651.478 387.088C651.478 385.971 651.693 384.991 652.124 384.148C652.56 383.3 653.178 382.64 653.978 382.166C654.778 381.688 655.73 381.449 656.833 381.449C657.785 381.449 658.618 381.622 659.333 381.967C660.048 382.313 660.614 382.798 661.031 383.423C661.447 384.048 661.677 384.782 661.719 385.625H658.864C658.784 385.08 658.571 384.643 658.225 384.311C657.884 383.975 657.437 383.807 656.883 383.807C656.414 383.807 656.004 383.935 655.654 384.19C655.308 384.441 655.039 384.808 654.844 385.291C654.65 385.774 654.553 386.359 654.553 387.045C654.553 387.741 654.648 388.333 654.837 388.821C655.031 389.309 655.304 389.68 655.654 389.936C656.004 390.192 656.414 390.32 656.883 390.32C657.228 390.32 657.539 390.249 657.813 390.107C658.093 389.964 658.322 389.759 658.502 389.489C658.687 389.214 658.808 388.885 658.864 388.501H661.719C661.672 389.335 661.445 390.069 661.038 390.703C660.635 391.333 660.079 391.825 659.369 392.18C658.658 392.536 657.818 392.713 656.847 392.713ZM669.459 381.591V383.864H662.89V381.591H669.459ZM664.381 378.977H667.407V389.148C667.407 389.427 667.449 389.645 667.534 389.801C667.62 389.953 667.738 390.059 667.89 390.121C668.046 390.182 668.226 390.213 668.429 390.213C668.571 390.213 668.713 390.201 668.855 390.178C668.998 390.149 669.106 390.128 669.182 390.114L669.658 392.365C669.507 392.412 669.293 392.467 669.019 392.528C668.744 392.595 668.41 392.635 668.017 392.649C667.288 392.678 666.649 392.58 666.1 392.358C665.555 392.135 665.132 391.79 664.828 391.321C664.525 390.852 664.376 390.26 664.381 389.545V378.977ZM678.426 387.855V381.591H681.451V392.5H678.547V390.518H678.433C678.187 391.158 677.777 391.671 677.204 392.06C676.636 392.448 675.942 392.642 675.123 392.642C674.394 392.642 673.752 392.476 673.199 392.145C672.645 391.813 672.211 391.342 671.899 390.732C671.591 390.121 671.435 389.389 671.43 388.537V381.591H674.456V387.997C674.46 388.641 674.633 389.15 674.974 389.524C675.315 389.898 675.772 390.085 676.345 390.085C676.709 390.085 677.05 390.002 677.368 389.837C677.685 389.666 677.94 389.415 678.135 389.084C678.333 388.752 678.431 388.343 678.426 387.855ZM683.871 392.5V381.591H686.805V383.494H686.918C687.117 382.817 687.451 382.306 687.92 381.96C688.388 381.61 688.928 381.435 689.539 381.435C689.691 381.435 689.854 381.444 690.029 381.463C690.204 381.482 690.358 381.508 690.491 381.541V384.226C690.349 384.183 690.152 384.145 689.901 384.112C689.65 384.079 689.421 384.062 689.212 384.062C688.767 384.062 688.37 384.16 688.019 384.354C687.674 384.543 687.399 384.808 687.195 385.149C686.996 385.49 686.897 385.883 686.897 386.328V392.5H683.871ZM696.519 392.713C695.397 392.713 694.431 392.486 693.621 392.031C692.816 391.572 692.196 390.923 691.76 390.085C691.325 389.242 691.107 388.246 691.107 387.095C691.107 385.973 691.325 384.988 691.76 384.141C692.196 383.293 692.809 382.633 693.6 382.159C694.395 381.686 695.328 381.449 696.398 381.449C697.118 381.449 697.788 381.565 698.408 381.797C699.033 382.024 699.578 382.367 700.042 382.827C700.51 383.286 700.875 383.864 701.135 384.56C701.396 385.251 701.526 386.061 701.526 386.989V387.82H692.314V385.945H698.678C698.678 385.509 698.583 385.123 698.394 384.787C698.204 384.451 697.942 384.188 697.605 383.999C697.274 383.804 696.888 383.707 696.448 383.707C695.989 383.707 695.581 383.814 695.226 384.027C694.876 384.235 694.601 384.517 694.402 384.872C694.203 385.223 694.102 385.613 694.097 386.044V387.827C694.097 388.366 694.196 388.833 694.395 389.226C694.599 389.619 694.885 389.922 695.255 390.135C695.624 390.348 696.062 390.455 696.569 390.455C696.905 390.455 697.212 390.407 697.492 390.312C697.771 390.218 698.01 390.076 698.209 389.886C698.408 389.697 698.56 389.465 698.664 389.19L701.462 389.375C701.32 390.047 701.029 390.634 700.588 391.136C700.153 391.634 699.589 392.022 698.898 392.301C698.212 392.576 697.418 392.713 696.519 392.713ZM708.129 392.5V381.591H711.155V392.5H708.129ZM709.649 380.185C709.199 380.185 708.813 380.036 708.491 379.737C708.174 379.434 708.016 379.072 708.016 378.651C708.016 378.234 708.174 377.876 708.491 377.578C708.813 377.275 709.199 377.124 709.649 377.124C710.099 377.124 710.482 377.275 710.8 377.578C711.122 377.876 711.283 378.234 711.283 378.651C711.283 379.072 711.122 379.434 710.8 379.737C710.482 380.036 710.099 380.185 709.649 380.185ZM716.604 386.193V392.5H713.578V381.591H716.462V383.516H716.59C716.831 382.881 717.236 382.379 717.804 382.01C718.373 381.636 719.061 381.449 719.871 381.449C720.629 381.449 721.289 381.615 721.853 381.946C722.416 382.277 722.854 382.751 723.167 383.366C723.479 383.977 723.635 384.706 723.635 385.554V392.5H720.61V386.094C720.614 385.426 720.444 384.905 720.098 384.531C719.753 384.152 719.277 383.963 718.671 383.963C718.264 383.963 717.904 384.051 717.591 384.226C717.283 384.401 717.042 384.657 716.867 384.993C716.696 385.324 716.609 385.724 716.604 386.193ZM733.76 392.706C733.064 392.706 732.443 392.585 731.899 392.344C731.354 392.098 730.923 391.735 730.606 391.257C730.294 390.774 730.137 390.173 730.137 389.453C730.137 388.847 730.249 388.338 730.471 387.926C730.694 387.514 730.997 387.183 731.38 386.932C731.764 386.681 732.199 386.491 732.687 386.364C733.18 386.236 733.696 386.146 734.235 386.094C734.87 386.027 735.381 385.966 735.77 385.909C736.158 385.848 736.44 385.758 736.615 385.639C736.79 385.521 736.877 385.346 736.877 385.114V385.071C736.877 384.621 736.735 384.273 736.451 384.027C736.172 383.781 735.774 383.658 735.258 383.658C734.714 383.658 734.28 383.778 733.958 384.02C733.636 384.257 733.423 384.555 733.319 384.915L730.521 384.688C730.663 384.025 730.942 383.452 731.359 382.969C731.776 382.481 732.313 382.107 732.971 381.847C733.634 381.581 734.401 381.449 735.272 381.449C735.878 381.449 736.458 381.52 737.012 381.662C737.571 381.804 738.066 382.024 738.497 382.322C738.932 382.621 739.276 383.004 739.527 383.473C739.778 383.937 739.903 384.493 739.903 385.142V392.5H737.034V390.987H736.949C736.773 391.328 736.539 391.629 736.245 391.889C735.952 392.145 735.599 392.346 735.187 392.493C734.775 392.635 734.299 392.706 733.76 392.706ZM734.626 390.618C735.071 390.618 735.464 390.53 735.805 390.355C736.146 390.175 736.413 389.934 736.608 389.631C736.802 389.328 736.899 388.984 736.899 388.601V387.443C736.804 387.505 736.674 387.562 736.508 387.614C736.347 387.661 736.165 387.706 735.961 387.749C735.758 387.786 735.554 387.822 735.35 387.855C735.147 387.884 734.962 387.91 734.797 387.933C734.441 387.985 734.131 388.068 733.866 388.182C733.601 388.295 733.395 388.449 733.248 388.643C733.101 388.833 733.028 389.07 733.028 389.354C733.028 389.766 733.177 390.08 733.475 390.298C733.779 390.511 734.162 390.618 734.626 390.618ZM746.879 392.5V381.591H749.763V383.516H749.891C750.118 382.876 750.497 382.372 751.027 382.003C751.557 381.634 752.192 381.449 752.93 381.449C753.679 381.449 754.315 381.636 754.841 382.01C755.366 382.379 755.717 382.881 755.892 383.516H756.006C756.228 382.891 756.631 382.391 757.213 382.017C757.8 381.638 758.494 381.449 759.294 381.449C760.312 381.449 761.138 381.773 761.773 382.422C762.412 383.066 762.732 383.98 762.732 385.163V392.5H759.713V385.76C759.713 385.154 759.552 384.699 759.23 384.396C758.908 384.093 758.506 383.942 758.023 383.942C757.473 383.942 757.045 384.117 756.737 384.467C756.429 384.813 756.276 385.27 756.276 385.838V392.5H753.342V385.696C753.342 385.161 753.188 384.735 752.881 384.418C752.578 384.1 752.178 383.942 751.68 383.942C751.344 383.942 751.041 384.027 750.771 384.197C750.506 384.363 750.295 384.598 750.139 384.901C749.983 385.199 749.905 385.549 749.905 385.952V392.5H746.879ZM770.05 392.713C768.947 392.713 767.993 392.479 767.188 392.01C766.388 391.536 765.77 390.878 765.335 390.036C764.899 389.188 764.681 388.205 764.681 387.088C764.681 385.961 764.899 384.976 765.335 384.134C765.77 383.286 766.388 382.628 767.188 382.159C767.993 381.686 768.947 381.449 770.05 381.449C771.154 381.449 772.105 381.686 772.906 382.159C773.71 382.628 774.331 383.286 774.766 384.134C775.202 384.976 775.42 385.961 775.42 387.088C775.42 388.205 775.202 389.188 774.766 390.036C774.331 390.878 773.71 391.536 772.906 392.01C772.105 392.479 771.154 392.713 770.05 392.713ZM770.065 390.369C770.567 390.369 770.986 390.227 771.322 389.943C771.658 389.654 771.911 389.261 772.082 388.764C772.257 388.267 772.344 387.701 772.344 387.067C772.344 386.432 772.257 385.866 772.082 385.369C771.911 384.872 771.658 384.479 771.322 384.19C770.986 383.902 770.567 383.757 770.065 383.757C769.558 383.757 769.132 383.902 768.786 384.19C768.445 384.479 768.187 384.872 768.012 385.369C767.842 385.866 767.756 386.432 767.756 387.067C767.756 387.701 767.842 388.267 768.012 388.764C768.187 389.261 768.445 389.654 768.786 389.943C769.132 390.227 769.558 390.369 770.065 390.369ZM780.413 386.193V392.5H777.387V381.591H780.271V383.516H780.398C780.64 382.881 781.045 382.379 781.613 382.01C782.181 381.636 782.87 381.449 783.68 381.449C784.437 381.449 785.098 381.615 785.661 381.946C786.225 382.277 786.663 382.751 786.975 383.366C787.288 383.977 787.444 384.706 787.444 385.554V392.5H784.418V386.094C784.423 385.426 784.253 384.905 783.907 384.531C783.561 384.152 783.085 383.963 782.479 383.963C782.072 383.963 781.712 384.051 781.4 384.226C781.092 384.401 780.851 384.657 780.675 384.993C780.505 385.324 780.417 385.724 780.413 386.193ZM794.757 392.713C793.654 392.713 792.7 392.479 791.895 392.01C791.095 391.536 790.477 390.878 790.042 390.036C789.606 389.188 789.388 388.205 789.388 387.088C789.388 385.961 789.606 384.976 790.042 384.134C790.477 383.286 791.095 382.628 791.895 382.159C792.7 381.686 793.654 381.449 794.757 381.449C795.861 381.449 796.812 381.686 797.613 382.159C798.417 382.628 799.038 383.286 799.473 384.134C799.909 384.976 800.127 385.961 800.127 387.088C800.127 388.205 799.909 389.188 799.473 390.036C799.038 390.878 798.417 391.536 797.613 392.01C796.812 392.479 795.861 392.713 794.757 392.713ZM794.772 390.369C795.274 390.369 795.693 390.227 796.029 389.943C796.365 389.654 796.618 389.261 796.789 388.764C796.964 388.267 797.051 387.701 797.051 387.067C797.051 386.432 796.964 385.866 796.789 385.369C796.618 384.872 796.365 384.479 796.029 384.19C795.693 383.902 795.274 383.757 794.772 383.757C794.265 383.757 793.839 383.902 793.493 384.19C793.152 384.479 792.894 384.872 792.719 385.369C792.549 385.866 792.463 386.432 792.463 387.067C792.463 387.701 792.549 388.267 792.719 388.764C792.894 389.261 793.152 389.654 793.493 389.943C793.839 390.227 794.265 390.369 794.772 390.369ZM802.094 392.5V381.591H805.027V383.494H805.141C805.34 382.817 805.674 382.306 806.142 381.96C806.611 381.61 807.151 381.435 807.762 381.435C807.913 381.435 808.077 381.444 808.252 381.463C808.427 381.482 808.581 381.508 808.713 381.541V384.226C808.571 384.183 808.375 384.145 808.124 384.112C807.873 384.079 807.643 384.062 807.435 384.062C806.99 384.062 806.592 384.16 806.242 384.354C805.896 384.543 805.622 384.808 805.418 385.149C805.219 385.49 805.12 385.883 805.12 386.328V392.5H802.094ZM814.741 392.713C813.619 392.713 812.653 392.486 811.844 392.031C811.039 391.572 810.419 390.923 809.983 390.085C809.547 389.242 809.33 388.246 809.33 387.095C809.33 385.973 809.547 384.988 809.983 384.141C810.419 383.293 811.032 382.633 811.822 382.159C812.618 381.686 813.551 381.449 814.621 381.449C815.34 381.449 816.01 381.565 816.631 381.797C817.256 382.024 817.8 382.367 818.264 382.827C818.733 383.286 819.098 383.864 819.358 384.56C819.618 385.251 819.749 386.061 819.749 386.989V387.82H810.537V385.945H816.901C816.901 385.509 816.806 385.123 816.616 384.787C816.427 384.451 816.164 384.188 815.828 383.999C815.497 383.804 815.111 383.707 814.67 383.707C814.211 383.707 813.804 383.814 813.449 384.027C813.098 384.235 812.824 384.517 812.625 384.872C812.426 385.223 812.324 385.613 812.32 386.044V387.827C812.32 388.366 812.419 388.833 812.618 389.226C812.821 389.619 813.108 389.922 813.477 390.135C813.847 390.348 814.285 390.455 814.791 390.455C815.127 390.455 815.435 390.407 815.714 390.312C815.994 390.218 816.233 390.076 816.432 389.886C816.631 389.697 816.782 389.465 816.886 389.19L819.685 389.375C819.543 390.047 819.251 390.634 818.811 391.136C818.375 391.634 817.812 392.022 817.121 392.301C816.434 392.576 815.641 392.713 814.741 392.713ZM821.723 396.591V381.591H824.706V383.423H824.841C824.973 383.13 825.165 382.831 825.416 382.528C825.672 382.221 826.003 381.965 826.411 381.761C826.822 381.553 827.334 381.449 827.945 381.449C828.74 381.449 829.474 381.657 830.146 382.074C830.819 382.486 831.356 383.108 831.759 383.942C832.161 384.77 832.362 385.81 832.362 387.06C832.362 388.277 832.166 389.304 831.773 390.142C831.384 390.975 830.854 391.607 830.182 392.038C829.514 392.464 828.766 392.678 827.938 392.678C827.35 392.678 826.851 392.58 826.439 392.386C826.032 392.192 825.698 391.948 825.438 391.655C825.177 391.357 824.978 391.056 824.841 390.753H824.749V396.591H821.723ZM824.685 387.045C824.685 387.694 824.775 388.26 824.955 388.743C825.134 389.226 825.395 389.602 825.736 389.872C826.077 390.137 826.491 390.27 826.979 390.27C827.471 390.27 827.888 390.135 828.229 389.865C828.57 389.59 828.828 389.212 829.003 388.729C829.183 388.241 829.273 387.68 829.273 387.045C829.273 386.416 829.185 385.862 829.01 385.384C828.835 384.905 828.577 384.531 828.236 384.261C827.895 383.991 827.476 383.857 826.979 383.857C826.486 383.857 826.07 383.987 825.729 384.247C825.393 384.508 825.134 384.877 824.955 385.355C824.775 385.833 824.685 386.397 824.685 387.045ZM839.308 392.713C838.205 392.713 837.251 392.479 836.446 392.01C835.646 391.536 835.028 390.878 834.592 390.036C834.157 389.188 833.939 388.205 833.939 387.088C833.939 385.961 834.157 384.976 834.592 384.134C835.028 383.286 835.646 382.628 836.446 382.159C837.251 381.686 838.205 381.449 839.308 381.449C840.411 381.449 841.363 381.686 842.163 382.159C842.968 382.628 843.589 383.286 844.024 384.134C844.46 384.976 844.678 385.961 844.678 387.088C844.678 388.205 844.46 389.188 844.024 390.036C843.589 390.878 842.968 391.536 842.163 392.01C841.363 392.479 840.411 392.713 839.308 392.713ZM839.322 390.369C839.824 390.369 840.243 390.227 840.58 389.943C840.916 389.654 841.169 389.261 841.339 388.764C841.515 388.267 841.602 387.701 841.602 387.067C841.602 386.432 841.515 385.866 841.339 385.369C841.169 384.872 840.916 384.479 840.58 384.19C840.243 383.902 839.824 383.757 839.322 383.757C838.816 383.757 838.39 383.902 838.044 384.19C837.703 384.479 837.445 384.872 837.27 385.369C837.099 385.866 837.014 386.432 837.014 387.067C837.014 387.701 837.099 388.267 837.27 388.764C837.445 389.261 837.703 389.654 838.044 389.943C838.39 390.227 838.816 390.369 839.322 390.369Z" fill="black"/>
</svg>
